# File created by Blade
# Date/Time:  Wed Jan 21 16:33:30 2015
# Frame Rate: 120.000 fps
#------------------------------------------------------
:FULLY-SPECIFIED
:DEGREES
885
root 27.987089 21.942568 -25.275833 -99.452568 91.783094 -18.460034
Spine -45.639165 0.775270 3.680217
Head -9.256502 3.191144 -2.463949
LeftShoulder -6.383249 -63.172222 35.456054
LeftArm 35.502975 -51.552276 -17.984337
LeftForeArm 5.578948 -0.000000 52.372400
LeftHand 1.471733 -0.000000 103.491045
LeftHandThumb1 -26.253704 0.000000 33.147579
RightShoulder -5.673560 20.796114 -34.378830
RightArm 118.942803 80.893314 104.741825
RightForeArm -45.225398 -0.000000 59.519901
RightHand -0.911222 0.000000 -92.182906
RightHandThumb1 -24.326973 -0.000000 -32.862282
LeftUpLeg 9.945698 2.425589 9.501314
LeftLeg 97.986061 -0.000000 -0.000000
LeftFoot -46.951687 29.167010 -18.018770
LeftToeBase 23.743671 -0.000000 -0.000000
RightUpLeg 9.234701 6.039686 -10.338860
RightLeg 97.913736 -0.000000 -0.000000
RightFoot -45.702616 -30.621459 24.306715
RightToeBase 21.667540 -0.000000 -0.000000
886
root 27.973006 21.824375 -25.265592 -101.658014 91.737112 -20.325559
Spine -45.281709 0.851801 3.684685
Head -7.596701 3.110625 -2.564261
LeftShoulder -6.032207 -63.279510 34.948093
LeftArm 35.375673 -51.431191 -18.547612
LeftForeArm 6.296479 -0.000000 53.799343
LeftHand 1.484758 -0.000000 103.324618
LeftHandThumb1 -26.253704 0.000000 33.147579
RightShoulder -5.603969 20.802796 -34.135265
RightArm 118.887522 80.403567 105.120730
RightForeArm -45.901430 -0.000000 60.866589
RightHand -1.001758 -0.000000 -91.636831
RightHandThumb1 -24.326973 -0.000000 -32.862282
LeftUpLeg 9.928933 2.344814 9.447694
LeftLeg 98.418763 -0.000000 -0.000000
LeftFoot -47.050266 29.337489 -18.023910
LeftToeBase 23.767674 -0.000000 -0.000000
RightUpLeg 9.171100 6.126072 -10.302592
RightLeg 98.360445 -0.000000 -0.000000
RightFoot -45.760932 -30.688314 24.146165
RightToeBase 21.871112 -0.000000 -0.000000
887
root 27.963048 21.707971 -25.260971 -105.722059 91.740624 -24.014385
Spine -44.884952 0.950894 3.692684
Head -5.961918 3.109268 -2.639972
LeftShoulder -5.715926 -63.311937 34.551756
LeftArm 35.053857 -51.331591 -18.944168
LeftForeArm 6.869863 -0.000000 55.230081
LeftHand 1.566392 -0.000000 103.139704
LeftHandThumb1 -26.253704 0.000000 33.147579
RightShoulder -5.454696 20.684634 -33.884395
RightArm 119.401849 79.984034 106.104225
RightForeArm -46.334239 -0.000000 62.184379
RightHand -0.873712 0.000000 -91.559836
RightHandThumb1 -24.326973 -0.000000 -32.862282
LeftUpLeg 9.984739 2.325922 9.354473
LeftLeg 98.833128 -0.000000 -0.000000
LeftFoot -47.176245 29.481525 -18.056842
LeftToeBase 23.829053 -0.000000 -0.000000
RightUpLeg 9.120097 6.278420 -10.320565
RightLeg 98.844691 -0.000000 -0.000000
RightFoot -45.767797 -30.658304 23.984781
RightToeBase 21.859921 -0.000000 -0.000000
888
root 27.950154 21.590322 -25.251846 -109.029156 91.734273 -26.960379
Spine -44.500765 1.021582 3.711717
Head -4.336409 3.066216 -2.739951
LeftShoulder -5.321596 -63.107653 34.047674
LeftArm 34.903605 -51.515443 -19.433999
LeftForeArm 7.477453 -0.000000 56.643052
LeftHand 1.677058 -0.000000 103.133148
LeftHandThumb1 -26.253704 0.000000 33.147579
RightShoulder -5.405198 20.562088 -33.656764
RightArm 119.748227 79.410129 106.993288
RightForeArm -46.960255 -0.000000 63.563466
RightHand -0.788147 -0.000000 -90.922220
RightHandThumb1 -24.326973 -0.000000 -32.862282
LeftUpLeg 10.005599 2.273681 9.268870
LeftLeg 99.249823 -0.000000 -0.000000
LeftFoot -47.290326 29.654430 -18.078673
LeftToeBase 23.806302 -0.000000 -0.000000
RightUpLeg 9.065707 6.397898 -10.296519
RightLeg 99.300482 -0.000000 -0.000000
RightFoot -45.885261 -30.661496 23.996812
RightToeBase 21.884127 -0.000000 -0.000000
889
root 27.935163 21.471130 -25.242651 -112.752219 91.740091 -30.346294
Spine -44.139350 1.088694 3.743807
Head -2.783411 3.052965 -2.844770
LeftShoulder -4.896787 -62.778057 33.505296
LeftArm 34.724021 -51.729764 -19.777825
LeftForeArm 8.050536 -0.000000 57.942985
LeftHand 1.669985 0.000000 103.075372
LeftHandThumb1 -26.253704 0.000000 33.147579
RightShoulder -5.359813 20.385179 -33.481354
RightArm 119.851914 78.890712 107.735981
RightForeArm -47.510007 -0.000000 64.983345
RightHand -0.773226 -0.000000 -90.119052
RightHandThumb1 -24.326973 -0.000000 -32.862282
LeftUpLeg 10.004481 2.241920 9.181389
LeftLeg 99.664850 -0.000000 -0.000000
LeftFoot -47.392940 29.814386 -18.074556
LeftToeBase 23.869916 -0.000000 -0.000000
RightUpLeg 8.960008 6.527320 -10.281123
RightLeg 99.782228 -0.000000 -0.000000
RightFoot -45.948555 -30.658249 23.981051
RightToeBase 21.925275 -0.000000 -0.000000
890
root 27.919488 21.350310 -25.233094 -116.391897 91.750086 -33.636619
Spine -43.741395 1.131823 3.797956
Head -1.289429 2.970965 -2.956081
LeftShoulder -4.520487 -62.705004 33.078816
LeftArm 34.154931 -51.746068 -19.801895
LeftForeArm 8.276418 -0.000000 59.356886
LeftHand 1.723516 -0.000000 102.939963
LeftHandThumb1 -26.253704 0.000000 33.147579
RightShoulder -5.258439 20.176475 -33.256225
RightArm 120.195269 78.479505 108.614848
RightForeArm -47.886380 0.000000 66.302525
RightHand -0.718041 0.000000 -89.505019
RightHandThumb1 -24.326973 -0.000000 -32.862282
LeftUpLeg 10.003379 2.225650 9.120547
LeftLeg 100.091693 -0.000000 -0.000000
LeftFoot -47.495100 29.966431 -18.075470
LeftToeBase 23.790023 -0.000000 -0.000000
RightUpLeg 8.874280 6.668053 -10.248923
RightLeg 100.260121 -0.000000 -0.000000
RightFoot -46.020575 -30.664275 23.929495
RightToeBase 21.970424 -0.000000 -0.000000
891
root 27.902735 21.227517 -25.222273 -119.925054 91.750376 -36.840871
Spine -43.364612 1.164379 3.884703
Head 0.155688 2.984969 -3.099036
LeftShoulder -4.209016 -62.586443 32.736625
LeftArm 33.551218 -51.868668 -19.863180
LeftForeArm 8.794407 -0.000000 60.743959
LeftHand 1.594942 -0.000000 103.187504
LeftHandThumb1 -26.253704 0.000000 33.147579
RightShoulder -5.180690 20.015007 -33.025348
RightArm 120.117744 78.068169 108.992810
RightForeArm -48.331796 -0.000000 67.452992
RightHand -0.598909 -0.000000 -89.173921
RightHandThumb1 -24.326973 -0.000000 -32.862282
LeftUpLeg 9.968637 2.219565 9.107206
LeftLeg 100.531950 -0.000000 -0.000000
LeftFoot -47.599679 30.078796 -18.069655
LeftToeBase 23.815677 -0.000000 -0.000000
RightUpLeg 8.767555 6.797136 -10.193411
RightLeg 100.735559 -0.000000 -0.000000
RightFoot -46.076057 -30.696348 23.871458
RightToeBase 21.952156 -0.000000 -0.000000
892
root 27.884675 21.103405 -25.212947 -122.659568 91.792274 -39.223278
Spine -42.931828 1.104109 3.941178
Head 1.475698 3.040929 -3.133140
LeftShoulder -4.004972 -62.397404 32.439694
LeftArm 33.126760 -51.902674 -19.822287
LeftForeArm 9.175017 0.000000 61.918768
LeftHand 1.668589 -0.000000 103.377134
LeftHandThumb1 -26.253704 0.000000 33.147579
RightShoulder -5.020758 20.006278 -32.652187
RightArm 119.643688 77.743216 108.823296
RightForeArm -48.740419 0.000000 68.428441
RightHand -0.396441 -0.000000 -89.353522
RightHandThumb1 -24.326973 -0.000000 -32.862282
LeftUpLeg 9.950628 2.202675 9.033644
LeftLeg 100.958694 -0.000000 -0.000000
LeftFoot -47.663021 30.250499 -18.030488
LeftToeBase 23.811053 -0.000000 -0.000000
RightUpLeg 8.679399 6.934417 -10.176941
RightLeg 101.219706 -0.000000 -0.000000
RightFoot -46.141269 -30.709402 23.820196
RightToeBase 22.101748 -0.000000 -0.000000
